HIERARCHY
ROOT Hips
{
	OFFSET 0.000000 89.005402 0.000000
	CHANNELS 6 Xposition Yposition Zposition Xrotation Yrotation Zrotation
	JOINT Spine
	{
		OFFSET 0.116900 10.681000 0.373400
		CHANNELS 3 Xrotation Yrotation Zrotation
		JOINT Spine1
		{
			OFFSET 0.000000 13.840401 0.053500
			CHANNELS 3 Xrotation Yrotation Zrotation
			JOINT Spine2
			{
				OFFSET 0.000000 14.712700 -0.366200
				CHANNELS 3 Xrotation Yrotation Zrotation
				JOINT Neck
				{
					OFFSET 0.000000 35.415497 -3.314200
					CHANNELS 3 Xrotation Yrotation Zrotation
					JOINT Head
					{
						OFFSET 0.000000 16.899200 1.218300
						CHANNELS 3 Xrotation Yrotation Zrotation
						JOINT HeadTop_End
						{
							OFFSET 0.000000 22.206207 2.192500
							CHANNELS 3 Xrotation Yrotation Zrotation
							End Site
							{
								OFFSET 0.000000 22.314178 0.000000
							}
						}
					}
				}
				JOINT LeftShoulder
				{
					OFFSET 12.896400 26.716293 -4.548400
					CHANNELS 3 Xrotation Yrotation Zrotation
					JOINT LeftArm
					{
						OFFSET 19.027000 -4.857010 -1.718400
						CHANNELS 3 Xrotation Yrotation Zrotation
						JOINT LeftForeArm
						{
							OFFSET 24.179897 0.000000 0.000000
							CHANNELS 3 Xrotation Yrotation Zrotation
							JOINT LeftHand
							{
								OFFSET 27.156403 0.000000 0.000000
								CHANNELS 3 Xrotation Yrotation Zrotation
								JOINT LeftHandIndex1
								{
									OFFSET 16.441200 0.000000 0.000000
									CHANNELS 3 Xrotation Yrotation Zrotation
									JOINT LeftHandIndex2
									{
										OFFSET 4.821899 0.000000 0.000000
										CHANNELS 3 Xrotation Yrotation Zrotation
										JOINT LeftHandIndex3
										{
											OFFSET 6.386497 0.000000 0.000000
											CHANNELS 3 Xrotation Yrotation Zrotation
											JOINT LeftHandIndex4
											{
												OFFSET 5.188988 0.000000 0.000000
												CHANNELS 3 Xrotation Yrotation Zrotation
												End Site
												{
													OFFSET -0.178703 5.185913 0.000177
												}
											}
										}
									}
								}
								JOINT LeftHandThumb1
								{
									OFFSET 6.534897 -5.032593 5.900300
									CHANNELS 3 Xrotation Yrotation Zrotation
									JOINT LeftHandThumb2
									{
										OFFSET 3.818176 -2.204422 2.204423
										CHANNELS 3 Xrotation Yrotation Zrotation
										JOINT LeftHandThumb3
										{
											OFFSET 3.252098 -1.877594 1.877601
											CHANNELS 3 Xrotation Yrotation Zrotation
											JOINT LeftHandThumb4
											{
												OFFSET 5.251778 -3.032120 3.032117
												CHANNELS 3 Xrotation Yrotation Zrotation
												End Site
												{
													OFFSET 0.000023 6.780014 0.000000
												}
											}
										}
									}
								}
							}
						}
					}
				}
				JOINT RightShoulder
				{
					OFFSET -12.896300 26.716293 -4.548400
					CHANNELS 3 Xrotation Yrotation Zrotation
					JOINT RightArm
					{
						OFFSET -19.027000 -4.857010 -1.718400
						CHANNELS 3 Xrotation Yrotation Zrotation
						JOINT RightForeArm
						{
							OFFSET -24.179897 0.000000 0.000000
							CHANNELS 3 Xrotation Yrotation Zrotation
							JOINT RightHand
							{
								OFFSET -27.156403 0.000000 0.000000
								CHANNELS 3 Xrotation Yrotation Zrotation
								JOINT RightHandThumb1
								{
									OFFSET -6.591202 -4.852203 5.988100
									CHANNELS 3 Xrotation Yrotation Zrotation
									JOINT RightHandThumb2
									{
										OFFSET -3.818176 -2.204422 2.204423
										CHANNELS 3 Xrotation Yrotation Zrotation
										JOINT RightHandThumb3
										{
											OFFSET -3.252098 -1.877594 1.877601
											CHANNELS 3 Xrotation Yrotation Zrotation
											JOINT RightHandThumb4
											{
												OFFSET -5.251778 -3.032120 3.032117
												CHANNELS 3 Xrotation Yrotation Zrotation
												End Site
												{
													OFFSET -0.000023 6.780014 0.000000
												}
											}
										}
									}
								}
								JOINT RightHandIndex1
								{
									OFFSET -16.029404 0.000000 0.000000
									CHANNELS 3 Xrotation Yrotation Zrotation
									JOINT RightHandIndex2
									{
										OFFSET -5.213303 0.000000 0.000000
										CHANNELS 3 Xrotation Yrotation Zrotation
										JOINT RightHandIndex3
										{
											OFFSET -6.386528 0.000000 0.000000
											CHANNELS 3 Xrotation Yrotation Zrotation
											JOINT RightHandIndex4
											{
												OFFSET -5.189026 0.000000 0.000000
												CHANNELS 3 Xrotation Yrotation Zrotation
												End Site
												{
													OFFSET 0.236702 5.183624 0.001972
												}
											}
										}
									}
								}
							}
						}
					}
				}
			}
		}
	}
	JOINT LeftUpLeg
	{
		OFFSET 14.073000 -7.904099 -1.463000
		CHANNELS 3 Xrotation Yrotation Zrotation
		JOINT LeftLeg
		{
			OFFSET -0.109806 -34.073280 4.093200
			CHANNELS 3 Xrotation Yrotation Zrotation
			JOINT LeftFoot
			{
				OFFSET 0.109806 -29.899420 -6.319000
				CHANNELS 3 Xrotation Yrotation Zrotation
				JOINT LeftToeBase
				{
					OFFSET 1.551100 -14.988700 20.535801
					CHANNELS 3 Xrotation Yrotation Zrotation
					JOINT LeftToe_End
					{
						OFFSET 0.221200 0.570800 13.248301
						CHANNELS 3 Xrotation Yrotation Zrotation
						End Site
						{
							OFFSET 0.000000 13.262435 0.000000
						}
					}
				}
			}
		}
	}
	JOINT RightUpLeg
	{
		OFFSET -13.839300 -7.904099 -1.463000
		CHANNELS 3 Xrotation Yrotation Zrotation
		JOINT RightLeg
		{
			OFFSET 0.109694 -34.073219 4.093300
			CHANNELS 3 Xrotation Yrotation Zrotation
			JOINT RightFoot
			{
				OFFSET -0.109694 -29.899384 -6.319200
				CHANNELS 3 Xrotation Yrotation Zrotation
				JOINT RightToeBase
				{
					OFFSET -1.551100 -14.988700 20.535801
					CHANNELS 3 Xrotation Yrotation Zrotation
					JOINT RightToe_End
					{
						OFFSET -0.221200 0.570900 13.248299
						CHANNELS 3 Xrotation Yrotation Zrotation
						End Site
						{
							OFFSET 0.000000 13.262440 0.000000
						}
					}
				}
			}
		}
	}
}
MOTION
Frames: 4
Frame Time: 0.033333
-8.513260 64.196350 -9.099797 -148.141421 232.710556 -142.734411 6.062330 4.411943 -2.861222 8.633508 11.214466 -1.333654 8.234046 11.495330 -0.412764 9.327154 2.596951 2.139345 -1.833224 22.315309 -16.220492 0.000000 0.000000 0.000000 3.026662 -10.373601 8.016427 -65.334700 11.801880 -76.704138 -0.000521 -84.518373 -0.000533 -57.108762 -14.772200 22.808537 0.093291 1.131896 -9.422903 0.203352 1.664282 -13.931552 0.051014 0.838329 -6.964299 0.000001 -0.000001 -0.000000 20.119779 23.495099 7.304565 1.968257 34.886988 -1.772094 -1.770825 15.030050 1.503653 0.000001 0.000002 -0.000000 2.140955 10.138437 -9.342358 -110.290965 35.294333 102.526692 0.000035 36.430511 -0.000036 -35.360087 -0.484819 -13.721183 12.374361 -43.289018 16.832040 37.520312 -20.127898 -34.549515 15.867706 0.344700 -23.824864 -0.000001 0.000001 0.000000 4.600968 -6.541578 70.211012 8.060467 -6.859071 99.233496 2.430581 -5.284588 49.374847 0.000001 -0.000001 -0.000001 -83.661450 0.351735 -29.324164 70.470921 -2.818051 1.291425 1.131283 -29.906373 6.019710 -13.311251 0.000010 0.000005 -0.000001 0.000002 0.000000 -10.091404 -34.598518 2.842355 76.157989 6.963497 2.956644 -18.759811 10.802071 -30.579191 -65.391972 0.795360 -4.651030 -0.000000 0.000001 0.000000 
-8.420572 64.159813 -9.063762 -148.454025 232.666542 -142.948797 6.131498 4.379763 -2.872377 8.770577 11.153788 -1.295299 8.380363 11.432048 -0.380688 9.124280 2.626763 1.951006 -1.858618 22.286677 -16.325996 0.000000 0.000000 -0.000000 3.080755 -10.592722 7.898872 -65.673109 11.811315 -76.496309 0.001605 -84.971385 0.001641 -58.058404 -14.348455 22.889668 0.093292 1.131895 -9.422901 0.203354 1.664280 -13.931551 0.051014 0.838329 -6.964302 0.000001 0.000001 0.000000 20.119777 23.495098 7.304564 1.968260 34.886981 -1.772096 -1.770826 15.030050 1.503655 0.000002 -0.000001 -0.000001 2.075814 9.675005 -9.922422 -110.631429 35.516331 102.528304 -0.000010 36.736794 0.000013 -36.678362 -0.534200 -14.194806 12.374360 -43.289015 16.832040 37.520316 -20.127900 -34.549518 15.867706 0.344699 -23.824866 -0.000003 0.000001 0.000000 4.600964 -6.541579 70.211012 8.060466 -6.859073 99.233503 2.430582 -5.284584 49.374850 0.000001 0.000001 0.000000 -83.414293 0.540004 -29.277736 70.372293 -2.823843 1.184423 1.129597 -29.933256 6.161629 -13.114914 -0.000009 0.000016 0.000000 0.000000 0.000000 -10.331232 -34.758174 2.648436 76.478134 6.740361 2.840579 -18.809132 10.385794 -30.363603 -65.603496 0.846710 -4.895496 -0.000000 0.000001 0.000000 
-8.300648 64.135818 -9.018044 -148.716782 232.652089 -143.134715 6.195449 4.363134 -2.856136 8.884716 11.122231 -1.183464 8.505020 11.389936 -0.269477 8.927569 2.664418 1.687182 -1.772762 22.250980 -16.538951 0.000000 0.000000 -0.000001 3.105160 -10.730535 7.592023 -65.861417 11.814480 -76.453661 -0.000612 -85.420190 -0.000636 -58.995793 -13.950281 22.995160 0.093294 1.131896 -9.422900 0.203356 1.664283 -13.931556 0.051016 0.838328 -6.964301 0.000002 -0.000000 -0.000001 20.119779 23.495094 7.304565 1.968258 34.886984 -1.772096 -1.770825 15.030050 1.503651 0.000001 0.000000 -0.000000 2.010310 9.189623 -10.644753 -110.857030 35.748066 102.512171 -0.000006 37.064920 -0.000005 -38.071526 -0.606480 -14.614810 12.374360 -43.289018 16.832038 37.520309 -20.127896 -34.549515 15.867706 0.344705 -23.824866 -0.000000 -0.000000 -0.000001 4.600965 -6.541580 70.211012 8.060467 -6.859070 99.233496 2.430583 -5.284587 49.374847 -0.000001 0.000000 -0.000001 -83.251632 0.679965 -29.202354 70.222780 -2.932240 0.970316 1.321413 -29.903709 6.390916 -12.946531 0.000008 0.000003 -0.000001 -0.000000 0.000000 -10.574828 -34.872808 2.414605 76.787712 6.538079 2.736358 -18.918676 10.012513 -30.081437 -65.705245 0.903312 -5.172544 -0.000000 -0.000001 -0.000000 
-8.151651 64.116112 -8.976959 -149.001260 232.648701 -143.333637 6.252886 4.337869 -2.816342 8.977483 11.074070 -1.010978 8.611194 11.324163 -0.097041 8.713055 2.722571 1.337561 -1.648499 22.228436 -16.777820 -0.000001 0.000001 0.000001 3.073117 -10.675183 7.149077 -65.931959 11.833529 -76.641177 0.000669 -85.809716 0.000769 -59.931959 -13.577796 23.129184 0.093290 1.131894 -9.422901 0.203354 1.664280 -13.931555 0.051015 0.838331 -6.964297 0.000002 0.000003 0.000000 20.119777 23.495098 7.304567 1.968255 34.886977 -1.772094 -1.770823 15.030052 1.503653 0.000000 -0.000002 -0.000002 1.957961 8.752307 -11.534548 -110.986927 36.011261 102.433535 0.000016 37.374341 -0.000021 -39.366297 -0.769600 -15.023030 12.374357 -43.289018 16.832036 37.520312 -20.127898 -34.549515 15.867711 0.344700 -23.824864 -0.000002 0.000002 0.000001 4.600963 -6.541580 70.211012 8.060464 -6.859070 99.233503 2.430584 -5.284585 49.374850 -0.000001 -0.000002 -0.000002 -83.101436 0.895909 -29.084793 70.040311 -3.138335 0.702487 1.734453 -29.811044 6.750353 -12.815889 0.000013 0.000004 -0.000000 -0.000002 0.000000 -10.821444 -34.986083 2.181166 77.129898 6.271149 2.573809 -19.099996 9.708813 -29.702509 -65.727409 0.961708 -5.458736 0.000000 -0.000001 -0.000000 
